/* XPM */
static char *_e5de90dfaa64b70e76175e1c4823de0V7vddPKfyefAqNrU[] = {
/* columns rows colors chars-per-pixel */
"32 32 3 1 ",
"  c #A6845D",
". c #B0905D",
"X c #BD9964",
/* pixels */
"................................",
"................................",
"................................",
"................................",
"........    ....XX..............",
"........    ....XX..............",
"........    ....................",
"........    ....................",
"........................    ....",
"........................    ....",
"........................    ....",
"........................    ....",
"................................",
"................................",
"....................XX..........",
"....................XX..........",
"................................",
"................................",
"........XXXX....................",
"........XXXX....................",
"........XXXX....................",
"........XXXX....................",
"..................    ..........",
"..................    ..........",
"..................    ......    ",
"..................    ......    ",
"..............  ............    ",
"..............  ............    ",
"................................",
"................................",
"................................",
"................................"
};
