/* XPM */
static char *dummy[]={
"78 78 43 1",
". c None",
"j c #456231",
"i c #4a6733",
"d c #4e6b34",
"k c #543f2d",
"e c #547237",
"h c #597837",
"# c #5b793a",
"n c #5d4631",
"q c #647742",
"E c #657340",
"f c #65823a",
"F c #677641",
"s c #677a43",
"l c #695235",
"L c #6a7d44",
"c c #6a873d",
"r c #6b7641",
"B c #6b7943",
"I c #6d8046",
"g c #6d8b3e",
"N c #6f8046",
"t c #726a3d",
"G c #72723f",
"p c #745f38",
"M c #748447",
"b c #748f42",
"o c #755e38",
"v c #778246",
"x c #786e3e",
"w c #786f3e",
"H c #79884a",
"u c #7b8b4b",
"y c #7c6e3d",
"m c #826c3c",
"a c #849e46",
"D c #89944d",
"K c #919c51",
"O c #95a156",
"A c #98a154",
"C c #9fab5a",
"z c #a6b05d",
"J c #a8b25d",
".............................#####...#######..................................",
".............................#####...#######..................................",
"....................####...##aaaaa###bbbbbbb##.....########...................",
"....................####...##aaaaa###bbbbbbb##.....########...................",
"....................####...##aaaaa###bbbbbbb##.....########...................",
".................###aaaa#####aaaaaaaabbaaaaabb#####bbbbbbbb##.................",
".................###aaaa#####aaaaaaaabbaaaaabb#####bbbbbbbb##.................",
".................###aaaaaaa##bbbaaaaaaaaaaaabb###bbaaaaabbb##.................",
".................###aaaaaaa##bbbaaaaaaaaaaaabb###bbaaaaabbb##.................",
".................###aaaaaaa##bbbaaaaaaaaaaaabb###bbaaaaabbb##.................",
"...............#####bbaaaaaaacccbbaaaaabbbbb##aaaaaaaaaa###...................",
"...............#####bbaaaaaaacccbbaaaaabbbbb##aaaaaaaaaa###...................",
"............###bbbbb##bbaaaaaaaaaaaaabbbbaaaaaaaaaabbb#####...................",
"............###bbbbb##bbaaaaaaaaaaaaabbbbaaaaaaaaaabbb#####...................",
"............###bbbbb##bbaaaaaaaaaaaaabbbbaaaaaaaaaabbb#####...................",
"............###bbbbbaaaaaaaaabbbaaaaabbaaaaaaabbbbbbbbbbbbb##dd...............",
"............###bbbbbaaaaaaaaabbbaaaaabbaaaaaaabbbbbbbbbbbbb##dd...............",
".......eeeee###bbbbbaaaabbbbbaaaaaaaabbaaaaaaaaaabbbbbbbbbb##ffddd............",
".......eeeee###bbbbbaaaabbbbbaaaaaaaabbaaaaaaaaaabbbbbbbbbb##ffddd............",
".......eeeee###bbbbbaaaabbbbbaaaaaaaabbaaaaaaaaaabbbbbbbbbb##ffddd............",
".....eebbbbbeeeeeeeebbbbbbbffaaaaabbbaaaabbbaaaaaaa###bbbbb##fffffdd..........",
".....eebbbbbeeeeeeeebbbbbbbffaaaaabbbaaaabbbaaaaaaa###bbbbb##fffffdd..........",
"..eeeeebbbbbeeebbbbbeefffffbbbbbbbbbbaaaaaaaccaaaaa########fffffffdd..........",
"..eeeeebbbbbeeebbbbbeefffffbbbbbbbbbbaaaaaaaccaaaaa########fffffffdd..........",
"eebbbbbeeeaaaaabbbbbeefffffbbbbbbbbbbccaaaaa##bbbbb###ffgggggddddd............",
"eebbbbbeeeaaaaabbbbbeefffffbbbbbbbbbbccaaaaa##bbbbb###ffgggggddddd............",
"eebbbbbeeeaaaaabbbbbeefffffbbbbbbbbbbccaaaaa##bbbbb###ffgggggddddd............",
"eebbbaaaaaaaaaabbeeeffffccccccccbbbbbccccccccc#####fffffggggggggggddddd.......",
"eebbbaaaaaaaaaabbeeeffffccccccccbbbbbccccccccc#####fffffggggggggggddddd.......",
"..eeeaaaaabbaaaaabbbbbccbbbbbcccccccccccccccccccccceeeeefffffgggggfffffdd.....",
"..eeeaaaaabbaaaaabbbbbccbbbbbcccccccccccccccccccccceeeeefffffgggggfffffdd.....",
"..eeeaaaaabbaaaaabbbbbccbbbbbcccccccccccccccccccccceeeeefffffgggggfffffdd.....",
"eebbbbbbbbbbaaaaabbbbbccbbbbbbbbbbhhhcccceeeeeccceebbbbbeeegggggggffdddddddd..",
"eebbbbbbbbbbaaaaabbbbbccbbbbbbbbbbhhhcccceeeeeccceebbbbbeeegggggggffdddddddd..",
"eebbbbbeeebbbbbeeccccccccccccbbbbbccchheebbbbbeeebbaaaaaeeeeegggggggffffffffdd",
"eebbbbbeeebbbbbeeccccccccccccbbbbbccchheebbbbbeeebbaaaaaeeeeegggggggffffffffdd",
"eebbbbbeeebbbbbeeccccccccccccbbbbbccchheebbbbbeeebbaaaaaeeeeegggggggffffffffdd",
"..eeeeeeeebbbbbeecccbbbbccchhcccccccceebbaaaaabbbbbaaaaabbbbbeegggggdddfffffdd",
"..eeeeeeeebbbbbeecccbbbbccchhcccccccceebbaaaaabbbbbaaaaabbbbbeegggggdddfffffdd",
"..iiiccccceeeeeccbbbbbbbbbbccdddccccceebbaaaaaaaaaaaaaaabbbeeeeffffffffddddd..",
"..iiiccccceeeeeccbbbbbbbbbbccdddccccceebbaaaaaaaaaaaaaaabbbeeeeffffffffddddd..",
"..iiiccccccccccbbbbbccbbbbbcccccddhhhhheeeeebbaaaaaaaabbaaaaabbdddfffffffddd..",
"..iiiccccccccccbbbbbccbbbbbcccccddhhhhheeeeebbaaaaaaaabbaaaaabbdddfffffffddd..",
"..iiiccccccccccbbbbbccbbbbbcccccddhhhhheeeeebbaaaaaaaabbaaaaabbdddfffffffddd..",
".....iiiiiiicccbbbbbccccdddcccccddhhheebbaaaaaaaaaaaaaaaaaaaabbbbbddfffffddd..",
".....iiiiiiicccbbbbbccccdddcccccddhhheebbaaaaaaaaaaaaaaaaaaaabbbbbddfffffddd..",
".......iiicccccccccccccccccdddddhheeebbbbaaaaabbbaaaaaaafffbbbbbbbffddddd.....",
".......iiicccccccccccccccccdddddhheeebbbbaaaaabbbaaaaaaafffbbbbbbbffddddd.....",
".......iiicccccccccccccccccdddddhheeebbbbaaaaabbbaaaaaaafffbbbbbbbffddddd.....",
".......iiiccccciicccddcccccddhhhhheeebbbbeeebbaaaaafffbbbbbfffffffffiii.......",
".......iiiccccciicccddcccccddhhhhheeebbbbeeebbaaaaafffbbbbbfffffffffiii.......",
"..........iiiiicccccccdddddhhhhhjjhhheeeehhhbbaaaaafffbbbbbffffffffffffii.....",
"..........iiiiicccccccdddddhhhhhjjhhheeeehhhbbaaaaafffbbbbbffffffffffffii.....",
"..........iiiiicccccccdddddhhhhhjjhhheeeehhhbbaaaaafffbbbbbffffffffffffii.....",
"............iiiccccciihhhhhhhhhhhhjjjhhhhiiibbbbbffffffffffffffiiifffffii.....",
"............iiiccccciihhhhhhhhhhhhjjjhhhhiiibbbbbffffffffffffffiiifffffii.....",
"...............iiiiiiihhhhhjjhhhhhjjjjjiifffffffffffffffiiiffffiiiiiiii.......",
"...............iiiiiiihhhhhjjhhhhhjjjjjiifffffffffffffffiiiffffiiiiiiii.......",
"...............iiiiiiihhhhhjjhhhhhjjjjjiifffffffffffffffiiiffffiiiiiiii.......",
"......................jjjjjkkjjjjjllllliiffffffffiifffffiiiiiii...............",
"......................jjjjjkkjjjjjllllliiffffffffiifffffiiiiiii...............",
"...........................kkmmmmmnnnlllliiiiiiiikkiiiii......................",
"...........................kkmmmmmnnnlllliiiiiiiikkiiiii......................",
"...........................nnlllmmnnnlloollllllllkk...........................",
"...........................nnlllmmnnnlloollllllllkk...........................",
"...........................nnlllmmnnnlloollllllllkk...........................",
"...........................nnooooolllooooooolllllnn...........................",
"...........................nnooooolllooooooolllllnn...........................",
"...........................nnlllllooooooooooooooonn...........................",
"...........................nnlllllooooooooooooooonn...........................",
"...........................nnlllllooooooooooooooonn...........................",
"........................nnnnnoooooooooooooooooooonnnnn........................",
"........................nnnnnoooooooooooooooooooonnnnn........................",
"......................nnmmmmmooooommmmmnnnnnooppqrmmmmnn......................",
"......................nnsssmmosssommmmmnnnnnoottuvwxyynn......................",
"......................nnsssmmosssommmmmnnnnnoottuvwxyynn......................",
"....................nnmszzAssszzAssssmmmmnnnnnBBCDEFGGssnnn...................",
"....................nnmsAAAHAsAAAHAAAsssmnnnnnIIJKLMNNOAssss.................."};
