/* XPM */
static char *dummy[]={
"32 32 14 1",
". c None",
"# c None",
"e c #263b5a",
"h c #306fae",
"f c #33506c",
"i c #3b5a6e",
"l c #4284aa",
"b c #42919b",
"c c #4ca2a2",
"j c #6c93a6",
"d c #8fb3bb",
"a c #9cc4be",
"k c #a8c2c4",
"g c #a8c7ce",
"................................",
"................................",
"................................",
"................................",
"................................",
"................................",
"................................",
"................................",
"........######aa##aa####........",
"........######aa##aa####........",
"........####aabbaaccaa##........",
"........####aabbaaccaa##........",
"........####aaccccdddd##........",
"........####aaccccdddd##........",
"........##ddaacceeffffdd........",
"........##ddaacceeffffdd........",
"........ddeeeeeeeeeeffdd........",
"........ddeeeeeeeeeeffdd........",
"........ggeeeeggeeeeeeffdd......",
"........ggeeeeggeeeeeeffdd......",
"......ddeehheeeeeeeeeeeedd......",
"......ddeehheeeeeeeeeeeedd......",
"....ddiieecceeeeeeeejjeeffdd....",
"....ddiieecceeeeeeeejjeeffdd....",
"....ddiieeeeeeeeeeeejjffffdd....",
"....ddiieeeeeeeeeeeejjffffdd....",
"......ddffeeeeeeeeffffdddd......",
"......ddffeeeeeeeeffffdddd......",
"........ddffffffffffffffkk......",
"........ddffffffffffffffkk......",
"........##kkllkkkkkkhhkk........",
"........##kkllkkkkkkhhkk........"};
