/* XPM */
static char *dummy[]={
"32 32 14 1",
". c None",
"# c None",
"f c #263b5a",
"i c #306fae",
"e c #33506c",
"j c #3b5a6e",
"l c #4284aa",
"c c #42919b",
"b c #4ca2a2",
"h c #6c93a6",
"d c #8fb3bb",
"a c #9cc4be",
"k c #a8c2c4",
"g c #a8c7ce",
"................................",
"................................",
"................................",
"................................",
"................................",
"................................",
"........####aa##aa######........",
"........####aa##aa######........",
"........##aabbaaccaa####........",
"........##aabbaaccaa####........",
"........##ddddbbbbaa####........",
"........##ddddbbbbaa####........",
"........ddeeeeffbbaadd##........",
"........ddeeeeffbbaadd##........",
"........ddeeffffffffffdd........",
"........ddeeffffffffffdd........",
"......ddffffffffggffffggdd......",
"......ddffffffffggffffggdd......",
"....ddeeffhhffffffffiiffjjdd....",
"....ddeeffhhffffffffiiffjjdd....",
"....ddeeeehhffffffffbbffjjdd....",
"....ddeeeehhffffffffbbffjjdd....",
"......ddddeeffffffffffffdd......",
"......ddddeeffffffffffffdd......",
"......kkeeeeeeffffffeeeedd......",
"......kkeeeeeeffffffeeeedd......",
"......kkiikkkkeeeeeedddd........",
"......kkiikkkkeeeeeedddd........",
"........######kkkkkkllkk........",
"........######kkkkkkllkk........",
"................................",
"................................"};
