/* XPM */
static char *dummy[]={
"40 40 8 1",
". c None",
"# c #4a4a4a",
"f c #555553",
"e c #666665",
"a c #aa673e",
"d c #c1c1c1",
"b c #db8b5a",
"c c #ffffff",
"........................................",
"........................................",
"........................................",
"........................................",
"........................................",
"........................................",
"........................................",
"........................................",
"......................#######...#####...",
"......................#######...#####...",
".....................#aaaabbb###aabb#...",
".....................#aaac##########....",
".....................#aaac##########....",
".....................#aaac##########....",
"......#..............#aaaabbbbbbbb##....",
"....##d###...........#aaaabbb#aaaaaa#...",
"....##d###...........#aaaabbb#aaaaaa#...",
"....##d###...........#aaaabbb#aaaaaa#...",
"..##ddc###.........##aaaaabbbbbbbb######",
"..##aac#######.....##ddddcccccccccccc###",
"..##aac#######.....##ddddcccccccccccc###",
"..##aaabbbbbbb###########ddddccccc###...",
"..##aaabbbbbbb###########ddddccccc###...",
"..##aaabbbbaaa#aaaaaaaaaa#########......",
"..##aaabbbbaaa#aaaaaaaaaa#########......",
"....##aaaaa###aaaaaaabbbbbbbbccc##......",
"......########aaaaa###bbbadddd##aa##....",
"......########aaaaa###bbbadddd##aa##....",
"......########aaaaa###bbbadddd##aa##....",
"..............#aa##eebbbb#######ee##....",
"..............#ff########.......####....",
"..............#ff########.......####....",
"..............#ff########.......####....",
"..............###.......................",
"........................................",
"........................................",
"........................................",
"........................................",
"........................................",
"........................................"};
