/* XPM */
static char *dummy[]={
"40 40 8 1",
". c None",
"# c #4a4a4a",
"e c #555553",
"f c #666665",
"a c #aa673e",
"d c #c1c1c1",
"c c #db8b5a",
"b c #ffffff",
"........................................",
"........................................",
"........................................",
"........................................",
"........................................",
"........................................",
"........................................",
"........................................",
"........................................",
"........................................",
"......................####..............",
".....................#aaa#....######....",
".....................#aaa#....######....",
".....................#aaa#....######....",
"...................##abbb#...#aacc##....",
"..####.............##abbb#########......",
"..####.............##abbb#########......",
"..####.............##abbb#########......",
"..##dd####.........##aaaaccccccc##......",
"..##ddbccc#........##aaaac###aaaaa##....",
"..##ddbccc#........##aaaac###aaaaa##....",
"..##ddacccc###...##aaaaaaccccccc#####...",
"..##ddacccc###...##aaaaaaccccccc#####...",
"....##accccccc#..##dddbbbbbbbbbbbbbb#...",
"....##accccccc#..##dddbbbbbbbbbbbbbb#...",
"....##aaaacccc########ddddbbbbbb####....",
"......#aaaa###aaaaaaaa##########........",
"......#aaaa###aaaaaaaa##########........",
"......#aaaa###aaaaaaaa##########........",
".......####aaaaaaaacccccccbbbb##........",
"..........#aaaaaacccccaaadddd###........",
"..........#aaaaaacccccaaadddd###........",
"..........#aaaaaacccccaaadddd###........",
"..........#aaa#######c#######a##........",
"..........#eee#ee####f###.###f##........",
"..........#eee#ee####f###.###f##........",
"..........####.##....####....###........",
"..........####.##....####....###........",
"........................................",
"........................................"};
