/* XPM */
static char *dummy[]={
"40 40 8 1",
". c None",
"# c #4a4a4a",
"f c #555553",
"e c #666665",
"b c #aa673e",
"d c #c1c1c1",
"a c #db8b5a",
"c c #ffffff",
"........................................",
"........................................",
"........................................",
"........................................",
"........................................",
"........................................",
"........................................",
"........................................",
"...#####...#######......................",
"...#####...#######......................",
"...#aabb###aaabbbb#.....................",
"....##########cbbb#.....................",
"....##########cbbb#.....................",
"....##########cbbb#.....................",
"....##aaaaaaaabbbb#..............#......",
"...#bbbbbb#aaabbbb#...........###d##....",
"...#bbbbbb#aaabbbb#...........###d##....",
"...#bbbbbb#aaabbbb#...........###d##....",
"######aaaaaaaabbbbb##.........###cdd##..",
"###ccccccccccccdddd##.....#######cbb##..",
"###ccccccccccccdddd##.....#######cbb##..",
"...###cccccdddd###########aaaaaaabbb##..",
"...###cccccdddd###########aaaaaaabbb##..",
"......#########bbbbbbbbbb#bbbaaaabbb##..",
"......#########bbbbbbbbbb#bbbaaaabbb##..",
"......##cccaaaaaaaabbbbbbb###bbbbb##....",
"....##bb##ddddbaaa###bbbbb########......",
"....##bb##ddddbaaa###bbbbb########......",
"....##bb##ddddbaaa###bbbbb########......",
"....##ee#######aaaaee##bb#..............",
"....####.......########ff#..............",
"....####.......########ff#..............",
"....####.......########ff#..............",
".......................###..............",
"........................................",
"........................................",
"........................................",
"........................................",
"........................................",
"........................................"};
