/* XPM */
static char *dummy[]={
"40 40 8 1",
". c None",
"# c #4a4a4a",
"f c #555553",
"e c #666665",
"a c #aa673e",
"d c #c1c1c1",
"b c #db8b5a",
"c c #ffffff",
"........................................",
"........................................",
"........................................",
"........................................",
"........................................",
"........................................",
"........................................",
"........................................",
"........................................",
"........................................",
"..............####......................",
"....######....#aaa#.....................",
"....######....#aaa#.....................",
"....######....#aaa#.....................",
"....##bbaa#...#ccca##...................",
"......#########ccca##.............####..",
"......#########ccca##.............####..",
"......#########ccca##.............####..",
"......##bbbbbbbaaaa##.........####dd##..",
"....##aaaaa###baaaa##........#bbbcdd##..",
"....##aaaaa###baaaa##........#bbbcdd##..",
"...#####bbbbbbbaaaaaa##...###bbbbadd##..",
"...#####bbbbbbbaaaaaa##...###bbbbadd##..",
"...#ccccccccccccccddd##..#bbbbbbba##....",
"...#ccccccccccccccddd##..#bbbbbbba##....",
"....####ccccccdddd########bbbbaaaa##....",
"........##########aaaaaaaa###aaaa#......",
"........##########aaaaaaaa###aaaa#......",
"........##########aaaaaaaa###aaaa#......",
"........##ccccbbbbbbbaaaaaaaa####.......",
"........###ddddaaabbbbbaaaaaa#..........",
"........###ddddaaabbbbbaaaaaa#..........",
"........###ddddaaabbbbbaaaaaa#..........",
"........##a#######b#######aaa#..........",
"........##e###.###e####ff#fff#..........",
"........##e###.###e####ff#fff#..........",
"........###....####....##.####..........",
"........###....####....##.####..........",
"........................................",
"........................................"};
