/* XPM */
static char *dummy[]={
"130 130 5 1",
"a c #677a43",
"c c #83924c",
"b c #98a154",
"# c #9e7e57",
". c #b0905d",
"..................................................................................................................................",
"..................................................................................................................................",
"..................................................................................................................................",
"..................................................................................................................................",
"..................................................................................................................................",
"..............................................#####...................######......................................................",
"..............................................#####...................######......................................................",
"..............................................#####...................######......................................................",
"......................................########aaaaa###........########aaaaaa###..######..######...................................",
"......................................########aaaaa###........########aaaaaa###..######..######...................................",
"......................................########aaaaa###........########aaaaaa###..######..######...................................",
"..............................########aaaaaaaabbbbbaaa########aaaaaaaabbbbbbaaa##aaaaaa##aaaaaa###................................",
"..............................########aaaaaaaabbbbbaaa########aaaaaaaabbbbbbaaa##aaaaaa##aaaaaa###................................",
"..............................########aaaaaaaabbbbbaaa########aaaaaaaabbbbbbaaa##aaaaaa##aaaaaa###................................",
"...........................###aaaaaaaabbbbbaaabbbbbaaaaaaaaaaabbbbbbaabbbbbbbbbaabbbbbbaabbbbbbaaa##..............................",
"...........................###aaaaaaaabbbbbaaabbbbbaaaaaaaaaaabbbbbbaabbbbbbbbbaabbbbbbaabbbbbbaaa##..............................",
"........................###aaabbbbbaaabbbbbcccaaabbaaabbbbbbaabbbbbbccaaabbbbbbccbbbbbbccbbbbbbaaaaa########......................",
"........................###aaabbbbbaaabbbbbcccaaabbaaabbbbbbaabbbbbbccaaabbbbbbccbbbbbbccbbbbbbaaaaa########......................",
"........................###aaabbbbbaaabbbbbcccaaabbaaabbbbbbaabbbbbbccaaabbbbbbccbbbbbbccbbbbbbaaaaa########......................",
"......................##aaaaaabbbbbccccccbbcccccccccccbbbbbbccbbbcccbbbbbcccccccccccbbbccbbbaaabbbbbaaaaaaaa###...................",
"......................##aaaaaabbbbbccccccbbcccccccccccbbbbbbccbbbcccbbbbbcccccccccccbbbccbbbaaabbbbbaaaaaaaa###...................",
"......................##aaaaaabbbbbccccccbbcccccccccccbbbbbbccbbbcccbbbbbcccccccccccbbbccbbbaaabbbbbaaaaaaaa###...................",
"...................###aabbbbbbaaabbcccccccccccccccccccbbbcccccccccccbbbbbccccccccccccccccccccccbbbbbaaabbbbbaaa###................",
"...................###aabbbbbbaaabbcccccccccccccccccccbbbcccccccccccbbbbbccccccccccccccccccccccbbbbbaaabbbbbaaa###................",
"................###aaaaabbbbbbccccccccccccccccccccccccccccccccccccccccbbbccccccccccccccccccccccbbbccbbbbbbbbaaa###................",
"................###aaaaabbbbbbccccccccccccccccccccccccccccccccccccccccbbbccccccccccccccccccccccbbbccbbbbbbbbaaa###................",
"................###aaaaabbbbbbccccccccccccccccccccccccccccccccccccccccbbbccccccccccccccccccccccbbbccbbbbbbbbaaa###................",
"..............##aaabbbbbaaabbbccccccccccccccccccccccccccccccccccccccccccccccccccccccccccccccccccccccccccccaaaaa###................",
"..............##aaabbbbbaaabbbccccccccccccccccccccccccccccccccccccccccccccccccccccccccccccccccccccccccccccaaaaa###................",
"..............##aaabbbbbaaabbbccccccccccccccccccccccccccccccccccccccccccccccccccccccccccccccccccccccccccccaaaaa###................",
"..............##aaabbbbbbbbccccccccccccccccccccccccccccccccccccccccccccccccccccccccccccccccccccccccccccbbbbbbbbaaa##..............",
"..............##aaabbbbbbbbccccccccccccccccccccccccccccccccccccccccccccccccccccccccccccccccccccccccccccbbbbbbbbaaa##..............",
"..............##aaabbbbbbbbccccccccccccccccccccccccccccccccccccccccccccccccccccccccccccccccccccccccccccbbbbbbbbaaa##..............",
"..............##aaaaaaaaccccccccccccccccccccccccccccccccccccccccccccccccccccccccccccccccccccccccccccccccccbbbbbaaa##..............",
"..............##aaaaaaaaccccccccccccccccccccccccccccccccccccccccccccccccccccccccccccccccccccccccccccccccccbbbbbaaa##..............",
"...........###aabbbbbbbbccccccccccccccccccccccccccccccccccccccccccccccccccccccccccccccccccccccccccccccccccccaaa###................",
"...........###aabbbbbbbbccccccccccccccccccccccccccccccccccccccccccccccccccccccccccccccccccccccccccccccccccccaaa###................",
"...........###aabbbbbbbbccccccccccccccccccccccccccccccccccccccccccccccccccccccccccccccccccccccccccccccccccccaaa###................",
"...........###aabbbbbbaacccccccccccccccccccccccccccccccccccccccccccccccccccccccccccccccccccccccccccccccbbbbbbbbaaa................",
"...........###aabbbbbbaacccccccccccccccccccccccccccccccccccccccccccccccccccccccccccccccccccccccccccccccbbbbbbbbaaa................",
"...........###aabbbbbbaacccccccccccccccccccccccccccccccccccccccccccccccccccccccccccccccccccccccccccccccbbbbbbbbaaa................",
"..............##aaaaaaccccccccccccccccccccccccccccccccccccccccccccccccccccccccccccccccccccccccccccccccccccbbbbbaaa................",
"..............##aaaaaaccccccccccccccccccccccccccccccccccccccccccccccccccccccccccccccccccccccccccccccccccccbbbbbaaa................",
"...........###aabbbbbbbbccccccccccccccccccccccccccccccccccccccccccccccccccccccccccccccccccccccccccccccccccaaaaa###................",
"...........###aabbbbbbbbccccccccccccccccccccccccccccccccccccccccccccccccccccccccccccccccccccccccccccccccccaaaaa###................",
"...........###aabbbbbbbbccccccccccccccccccccccccccccccccccccccccccccccccccccccccccccccccccccccccccccccccccaaaaa###................",
"...........###aabbbbbbcccccccccccccccccccccccccccccccccccccccccccccccccccccccccccccccccccccccccbbbbbccccccbbbbbaaa##..............",
"...........###aabbbbbbcccccccccccccccccccccccccccccccccccccccccccccccccccccccccccccccccccccccccbbbbbccccccbbbbbaaa##..............",
"...........###aabbbbbbcccccccccccccccccccccccccccccccccccccccccccccccccccccccccccccccccccccccccbbbbbccccccbbbbbaaa##..............",
"...........###aaaaacccccccccccccccccccccccccccccccccccccccccccccccccccccccccccccccccccccccccbbbbbbbbcccbbbbbbbbaaa##..............",
"...........###aaaaacccccccccccccccccccccccccccccccccccccccccccccccccccccccccccccccccccccccccbbbbbbbbcccbbbbbbbbaaa##..............",
"........###aaabbbbbcccccccccccccccccccccccccccccccccccccccccccccccccccccccccccccccccccccccccccccccccccccccaaaaa###................",
"........###aaabbbbbcccccccccccccccccccccccccccccccccccccccccccccccccccccccccccccccccccccccccccccccccccccccaaaaa###................",
"........###aaabbbbbcccccccccccccccccccccccccccccccccccccccccccccccccccccccccccccccccccccccccccccccccccccccaaaaa###................",
"........###aaabbbbbbbbccccccccccccccccccccccccccccccccccccccccccccccccccccccccccccccccccccccccccccccbbbbbbbbaaa###................",
"........###aaabbbbbbbbccccccccccccccccccccccccccccccccccccccccccccccccccccccccccccccccccccccccccccccbbbbbbbbaaa###................",
"........###aaabbbbbbbbccccccccccccccccccccccccccccccccccccccccccccccccccccccccccccccccccccccccccccccbbbbbbbbaaa###................",
"...........###aaaaaccccccccccccccccccccccccccccccccccccccccccccccccccccccccccccccccccccccccccccccccccccbbbbbaaa###................",
"...........###aaaaaccccccccccccccccccccccccccccccccccccccccccccccccccccccccccccccccccccccccccccccccccccbbbbbaaa###................",
"...........###aaaaaccccccccccccccccccccccccccccccccccccccccccccccccccccccccccccccccccccccccccccccccccccbbbbbaaa###................",
"...........aaabbbbbcccccccccccccccccccccccccccccccccccccccccccccccccccccccccccccccccccccccccccccccccccccccaaaaaaaa##..............",
"...........aaabbbbbcccccccccccccccccccccccccccccccccccccccccccccccccccccccccccccccccccccccccccccccccccccccaaaaaaaa##..............",
".....###aaaaaabbbbbbbbccccccccccccccccccccccccccccccccccccccccccccccccccccccccccccccccccccccccccccccccccccbbbbbbbbaa..............",
".....###aaaaaabbbbbbbbccccccccccccccccccccccccccccccccccccccccccccccccccccccccccccccccccccccccccccccccccccbbbbbbbbaa..............",
".....###aaaaaabbbbbbbbccccccccccccccccccccccccccccccccccccccccccccccccccccccccccccccccccccccccccccccccccccbbbbbbbbaa..............",
".....aaabbbbbbaaccccccccccccccccccccccccccccccccccccccccccccccccccccccccccccccccccccccccccccccccccccccccccccbbbbbbaa..............",
".....aaabbbbbbaaccccccccccccccccccccccccccccccccccccccccccccccccccccccccccccccccccccccccccccccccccccccccccccbbbbbbaa..............",
".....aaabbbbbbaaccccccccccccccccccccccccccccccccccccccccccccccccccccccccccccccccccccccccccccccccccccccccccccbbbbbbaa..............",
".....aaabbbbbbbbcccbbbbbbbbcccccccccccccccccccccccccccccccccccccccccccccccccccccccccccccccccccccccbbbbbbbbccaaaaaa##..............",
".....aaabbbbbbbbcccbbbbbbbbcccccccccccccccccccccccccccccccccccccccccccccccccccccccccccccccccccccccbbbbbbbbccaaaaaa##..............",
".....###aaaaaacccccbbbbbccccccccccccccccccccccccccccccccccccccccccccccccccccccccccccccccccccccccccccbbbbbbaabbbbbbaa###...........",
".....###aaaaaacccccbbbbbccccccccccccccccccccccccccccccccccccccccccccccccccccccccccccccccccccccccccccbbbbbbaabbbbbbaa###...........",
".....###aaaaaacccccbbbbbccccccccccccccccccccccccccccccccccccccccccccccccccccccccccccccccccccccccccccbbbbbbaabbbbbbaa###...........",
".....###aaabbbbbbbbcccccccccccccccccccccccccccccccccccccccccccccccccccccccccccccccccccccccccccccccccccccccbbbbbbbbaa###...........",
".....###aaabbbbbbbbcccccccccccccccccccccccccccccccccccccccccccccccccccccccccccccccccccccccccccccccccccccccbbbbbbbbaa###...........",
".....###aaabbbbbbbbcccccccccccccccccccccccccccccccccccccccccccccccccccccccccccccccccccccccccccccccccccccccbbbbbbbbaa###...........",
".....###aaabbbbbccccccccccccccccccccccccccccccccccccccccccccccccccccccccccccccccccccccccccccccccccccccccccbbbbbaaa##..............",
".....###aaabbbbbccccccccccccccccccccccccccccccccccccccccccccccccccccccccccccccccccccccccccccccccccccccccccbbbbbaaa##..............",
".....###aaabbbbbccccccccccccccccccccccccccccccccccccccccccccccccccccccccccccccccccccccccccccccccccccccccccbbbbbaaa##..............",
"........###aaaaabbbbbbbbccccccccccccccccccccccccccccccccccccccccccccccccccccccccccccccccccccccccccccccccccccaaa###................",
"........###aaaaabbbbbbbbccccccccccccccccccccccccccccccccccccccccccccccccccccccccccccccccccccccccccccccccccccaaa###................",
"...........###aabbbbbbccccccccccccccccccccccccccccccccccccccccccccccccccccccccccccccccccccccccccccccccccccbbbbbaaa##..............",
"...........###aabbbbbbccccccccccccccccccccccccccccccccccccccccccccccccccccccccccccccccccccccccccccccccccccbbbbbaaa##..............",
"...........###aabbbbbbccccccccccccccccccccccccccccccccccccccccccccccccccccccccccccccccccccccccccccccccccccbbbbbaaa##..............",
"..............##aaaaaacccccccccccccccccccccccccccccccccccccccccccccccccccccccccccccccccccccccccccccccccbbbbbbbbaaa##..............",
"..............##aaaaaacccccccccccccccccccccccccccccccccccccccccccccccccccccccccccccccccccccccccccccccccbbbbbbbbaaa##..............",
"..............##aaaaaacccccccccccccccccccccccccccccccccccccccccccccccccccccccccccccccccccccccccccccccccbbbbbbbbaaa##..............",
"...........###aabbbbbbbbccccccccccccccccccccccccccccccccccccccccccccccccccccccccccccccccccccccccccccccccccaaaaa###................",
"...........###aabbbbbbbbccccccccccccccccccccccccccccccccccccccccccccccccccccccccccccccccccccccccccccccccccaaaaa###................",
"...........###aabbbbbbcccccccccccccccccccccccccccccccccccccccccccccccccccccccccccccccccccccccccccccccccbbbbbbbbaaa##..............",
"...........###aabbbbbbcccccccccccccccccccccccccccccccccccccccccccccccccccccccccccccccccccccccccccccccccbbbbbbbbaaa##..............",
"...........###aabbbbbbcccccccccccccccccccccccccccccccccccccccccccccccccccccccccccccccccccccccccccccccccbbbbbbbbaaa##..............",
"...........###aaaaacccccccccccccccccccccccccccccccccccccccccccccccccccccccccccccccccccccccccccccccccccccccbbbbbaaa##..............",
"...........###aaaaacccccccccccccccccccccccccccccccccccccccccccccccccccccccccccccccccccccccccccccccccccccccbbbbbaaa##..............",
"...........###aaaaacccccccccccccccccccccccccccccccccccccccccccccccccccccccccccccccccccccccccccccccccccccccbbbbbaaa##..............",
"........###aaabbbbbcccccccccccccccccccccccccccccccccccccccccccccccccccccccccccccccccccccccccccccccccccccccaaaaa###................",
"........###aaabbbbbcccccccccccccccccccccccccccccccccccccccccccccccccccccccccccccccccccccccccccccccccccccccaaaaa###................",
"........###aaabbbbbcccccccccccccccccccccccccccccccccccccccccccccccccccccccccccccccccccccccccccccccccccccccaaaaa###................",
"........###aaabbbbbbbbcccccccccccccccccccccccccccccccccccccccccccccccccccccccccccccccccccccccccccccccccbbbbbbbbaaa##..............",
"........###aaabbbbbbbbcccccccccccccccccccccccccccccccccccccccccccccccccccccccccccccccccccccccccccccccccbbbbbbbbaaa##..............",
"...........###aaaaaaaacccccccccccccccccccccccccccccbbbccccccccccccccccccccccccccccccccccccccccccccbbbbbaaabbbbbaaa##..............",
"...........###aaaaaaaacccccccccccccccccccccccccccccbbbccccccccccccccccccccccccccccccccccccccccccccbbbbbaaabbbbbaaa##..............",
"...........###aaaaaaaacccccccccccccccccccccccccccccbbbccccccccccccccccccccccccccccccccccccccccccccbbbbbaaabbbbbaaa##..............",
"..............##aaabbbbbbbbccccccccccccccccccccccccbbbbbbcccccccccccccbbbcccccccccccccccccccccccccbbbbbbbbaaaaa###................",
"..............##aaabbbbbbbbccccccccccccccccccccccccbbbbbbcccccccccccccbbbcccccccccccccccccccccccccbbbbbbbbaaaaa###................",
"..............##aaabbbbbbbbccccccccccccccccccccccccbbbbbbcccccccccccccbbbcccccccccccccccccccccccccbbbbbbbbaaaaa###................",
"..............##aaabbbbbaaabbbbbbccccccccccccccccccbbbbbbcccccccccccbbbbbcccccccccccccccccccccccccccbbbbbbaa###...................",
"..............##aaabbbbbaaabbbbbbccccccccccccccccccbbbbbbcccccccccccbbbbbcccccccccccccccccccccccccccbbbbbbaa###...................",
"................###aaaaabbbbbbbbbccccccccbbcccccccccccccccccccbbbcccbbbbbcccccccccccbbbcccccccccccbbaaaaaa##......................",
"................###aaaaabbbbbbbbbccccccccbbcccccccccccccccccccbbbcccbbbbbcccccccccccbbbcccccccccccbbaaaaaa##......................",
"................###aaaaabbbbbbbbbccccccccbbcccccccccccccccccccbbbcccbbbbbcccccccccccbbbcccccccccccbbaaaaaa##......................",
"...................###aabbbbbbaaabbcccbbbbbaaabbbaaccccccbbbccbbbbbbccaaabbbbbbccbbbbbbccbbbccccccbbbbbaaa##......................",
"...................###aabbbbbbaaabbcccbbbbbaaabbbaaccccccbbbccbbbbbbccaaabbbbbbccbbbbbbccbbbccccccbbbbbaaa##......................",
"...................###aabbbbbbaaabbcccbbbbbaaabbbaaccccccbbbccbbbbbbccaaabbbbbbccbbbbbbccbbbccccccbbbbbaaa##......................",
"......................##aaaaaabbbbbaaabbbbbaaabbbbbaaabbbbbbaabbbbbbaabbbbbbbbbaabbbbbbaabbbbbbaaabbbbbaaa##......................",
"......................##aaaaaabbbbbaaabbbbbaaabbbbbaaabbbbbbaabbbbbbaabbbbbbbbbaabbbbbbaabbbbbbaaabbbbbaaa##......................",
"........................###aaabbbbbaaaaaaaaaaabbbbbaaabbbbbbaaaaaaaaaabbbbbbaaa##aaaaaaaabbbbbbaaaaaaaa###........................",
"........................###aaabbbbbaaaaaaaaaaabbbbbaaabbbbbbaaaaaaaaaabbbbbbaaa##aaaaaaaabbbbbbaaaaaaaa###........................",
"........................###aaabbbbbaaaaaaaaaaabbbbbaaabbbbbbaaaaaaaaaabbbbbbaaa##aaaaaaaabbbbbbaaaaaaaa###........................",
"...........................###aaaaa###########aaaaa###aaaaaa##########aaaaaa###..########aaaaaa########...........................",
"...........................###aaaaa###########aaaaa###aaaaaa##########aaaaaa###..########aaaaaa########...........................",
"...........................###aaaaa###########aaaaa###aaaaaa##########aaaaaa###..########aaaaaa########...........................",
"..............................#####...........#####...######..........######...........########...................................",
"..............................#####...........#####...######..........######...........########...................................",
"..............................#####...........#####...######..........######...........########...................................",
"..................................................................................................................................",
"..................................................................................................................................",
"..................................................................................................................................",
"..................................................................................................................................",
".................................................................................................................................."};
