/* XPM */
static char *dummy[]={
"32 32 7 1",
". c None",
"a c #000000",
"# c #674c40",
"b c #7c5849",
"c c #8f6051",
"d c #b07f61",
"e c #c2845f",
"................................",
"................................",
"................................",
"................................",
"..........####aa................",
"..........####aa................",
"........bbccdd##................",
"........bbccdd##................",
"........bbddee##..bbbbbbaa......",
"........bbddee##..bbbbbbaa......",
"..........bbbbbb..bbeeddbb......",
"..........bbbbbb..bbeeddbb......",
"..................##ddccbb......",
"..................##ddccbb......",
"....................####........",
"....................####........",
"................................",
"................................",
"............bbbbbb..............",
"............bbbbbb..............",
"..........bbddee##..............",
"..........bbddee##..............",
"..........bbccdd##..............",
"..........bbccdd##..............",
"............####aa..............",
"............####aa..............",
"................................",
"................................",
"................................",
"................................",
"................................",
"................................"};
