/* XPM */
static char *dummy[]={
"32 32 13 1",
". c None",
"f c #573831",
"j c #573d3b",
"# c #633b41",
"c c #704c44",
"i c #936c59",
"b c #b35d5d",
"a c #bd6e64",
"k c #bd7b55",
"h c #c4a591",
"e c #ccaf93",
"g c #cf9051",
"d c #d9c4a5",
"................................",
"................................",
"................................",
"................................",
"................................",
"................................",
"................................",
"................................",
"..............##..##............",
"..............##..##............",
"............##aa##bb##..........",
"............##aa##bb##..........",
"............##bbbbcccc..........",
"............##bbbbcccc..........",
"..........cc##bbddeeeecc........",
"..........cc##bbddeeeecc........",
"........ccddddddddddeecc........",
"........ccddddddddddeecc........",
"........ffddddffddddddeecc......",
"........ffddddffddddddeecc......",
"......ccddggddddddddddddcc......",
"......ccddggddddddddddddcc......",
"....cchhddbbddddddddiiddeecc....",
"....cchhddbbddddddddiiddeecc....",
"....cchhddddddddddddiieeeecc....",
"....cchhddddddddddddiieeeecc....",
"......cceeddddddddeeeecccc......",
"......cceeddddddddeeeecccc......",
"........cceeeeeeeeeeeeeejj......",
"........cceeeeeeeeeeeeeejj......",
"..........jjkkjjjjjjggjj........",
"..........jjkkjjjjjjggjj........"};
