/* XPM */
static char *dummy[]={
"32 32 13 1",
". c None",
"f c #573831",
"j c #573d3b",
"# c #633b41",
"c c #704c44",
"g c #936c59",
"a c #b35d5d",
"b c #bd6e64",
"k c #bd7b55",
"i c #c4a591",
"d c #ccaf93",
"h c #cf9051",
"e c #d9c4a5",
"................................",
"................................",
"................................",
"................................",
"................................",
"................................",
"............##..##..............",
"............##..##..............",
"..........##aa##bb##............",
"..........##aa##bb##............",
"..........ccccaaaa##............",
"..........ccccaaaa##............",
"........ccddddeeaa##cc..........",
"........ccddddeeaa##cc..........",
"........ccddeeeeeeeeeecc........",
"........ccddeeeeeeeeeecc........",
"......cceeeeeeeeffeeeeffcc......",
"......cceeeeeeeeffeeeeffcc......",
"....ccddeeggeeeeeeeehheeiicc....",
"....ccddeeggeeeeeeeehheeiicc....",
"....ccddddggeeeeeeeeaaeeiicc....",
"....ccddddggeeeeeeeeaaeeiicc....",
"......ccccddeeeeeeeeeeeecc......",
"......ccccddeeeeeeeeeeeecc......",
"......jjddddddeeeeeeddddcc......",
"......jjddddddeeeeeeddddcc......",
"......jjhhjjjjddddddcccc........",
"......jjhhjjjjddddddcccc........",
"..............jjjjjjkkjj........",
"..............jjjjjjkkjj........",
"................................",
"................................"};
