/* XPM */
static char *b8443284301b45c4eb1d8e9035c951b30T12rts2lyQfgSxo[] = {
/* columns rows colors chars-per-pixel */
"32 32 7 1 ",
"  c None",
". c #494C43",
"X c #4F544B",
"o c #575E55",
"O c #677366",
"+ c #707F6F",
"@ c #7A8A75",
/* pixels */
"                                ",
"                                ",
"                                ",
"                                ",
"                                ",
"                                ",
"                                ",
"                                ",
"              oooooooo          ",
"              oooooooo          ",
"          oooo@@@@++++oo        ",
"          oooo@@@@++++oo        ",
"    oooooo@@++++++OOOO++oo      ",
"    oooooo@@++++++OOOO++oo      ",
"  oo++++OOOOOO++++++OOOOoooo    ",
"  oo++++OOOOOO++++++OOOOoooo    ",
"oo@@++++++OOooOOOOOOOOoo++oo    ",
"oo@@++++++OOooOOOOOOOOoo++oo    ",
"oo@@++++++++OOooooOOXX@@++OO..  ",
"oo@@++++++++OOooooOOXX@@++OO..  ",
"..@@++++++++++++++XXXX++++++OO..",
"..@@++++++++++++++XXXX++++++OO..",
"  OO@@++++++++++++++XXOO++OOOO  ",
"  OO@@++++++++++++++XXOO++OOOO  ",
"  OOOOOOOO@@@@++++OOOOXXOOOOoo  ",
"  OOOOOOOO@@@@++++OOOOXXOOOOoo  ",
"    OOOOOOOOOOOOOOOOOOXXoooo    ",
"    OOOOOOOOOOOOOOOOOOXXoooo    ",
"      OOOOOOOOOOOOooooXXoo      ",
"      OOOOOOOOOOOOooooXXoo      ",
"          oooooooooooo          ",
"          oooooooooooo          "
};
